<svg xmlns="http://www.w3.org/2000/svg"  viewBox="0 0 506.54 320">

<style type="text/css">
	@keyframes anim{
		0%{
			opacity: 0;
		}
		50%{
			opacity: 1;
		}
	}
	<!-- @keyframes tangle{
		0%{
			transform: translate(0px,0px);
		}
		35%{
			opacity: 0.7;
		}
		50%{
			opacity: 0.3;
			transform: translate(0px,20px);
		}
		75%{
			opacity: 0.7;
		}
		100%{
			opacity: 1;
			transform: translate(0px,0px);
		}
	} -->

	

	@keyframes paint{
		100%{
			stroke: #FFEB3B;
			stroke-dashoffset: 0;
		}
	}
	
	@keyframes fill {
		100%{
			fill: #FFEB3B;
		}
	}
	.st1{
		stroke-dasharray: 768;
		stroke-dashoffset: 768;
		fill: transparent;
		stroke: #ccc;
		stroke-width: 1px;
		animation: anim 2s ease-in-out,paint 3s ease-in-out forwards,fill 1.3s 1.5s ease-in-out forwards,tangle 4s 3s infinite ease-in-out backwards;
	}

</style>
<title>Ресурс 1</title>
<g id="Слой_2" data-name="Слой 2">
<g id="logot" data-name="Слой 1">
<path class="st1" d="M63,105H58.5V52.5H4.5V105H0V0H4.5V48h54V0H63Z"/>
<path class="st1" d="M92.1,18h4.5v87H92.1Z"/><path class="st1" d="M120.75,128.4q1.65-2.25,4-9.3A44.82,44.82,0,0,0,127,105H122.7V96.3h9.9q0,22.65-8.1,34.5Z"/><path class="st1" d="M4.5,285H0V180H4.5Z"/><path class="st1" d="M30.45,212.1q1.65-2.25,4-9.3a44.81,44.81,0,0,0,2.32-14.1H32.4V180h9.9q0,22.65-8.1,34.5Z"/><path class="st1" d="M80.85,280.5h57.9V204.3L105,238,71.25,204.3V285l-4.5-.15V198h4.5L105,231.75,138.75,198h4.5v87l-62.4-.15Z"/><path class="st1" d="M231,285H216.6V180H231q21.6,0,36.6,15.9t15,36.6q0,20.7-15,36.6T231,285Zm0-4.5q19.65,0,33.38-14.48T278.1,232.5q0-19-13.73-33.52T231,184.5h-9.9v96Z"/><path class="st1" d="M304.95,198h4.5v87h-4.5Z"/><path class="st1" d="M352,280.5h57.9V204.3L376.19,238,342.44,204.3V285l-4.5-.15V198h4.5l33.75,33.75L409.94,198h4.5v87l-62.4-.15Z"/><path class="st1" d="M450.89,280.5h48.9L469,208l-32.7,77h-4.8L469,196.5l37.5,88.5H450.89Z"/></g></g></svg>