<svg id="Слой_1" data-name="Слой 1" xmlns="http://www.w3.org/2000/svg" viewBox="0 0 344.8 143.43">
    <defs>
        <style>
            @keyframes anim{
                0%{
                    opacity: 0;
                }
                50%{
                    opacity: 1;
                }
            }

            @keyframes tangle{
                0%{
                    transform: translate(0px,0px);
                }
                50%{
                    transform: translate(0px,20px);
                }
                100%{
                    transform: translate(0px,0px);
                }
            }

            @keyframes show{
                100%{
                    opacity: 1;
                }
            }

            @keyframes paint-hover{
                100%{
                    stroke: #F6BABB;
                    stroke-dashoffset: 0;
                }
            }

            @keyframes paint{
                100%{
                    stroke: #fff;
                    stroke-dashoffset: 0;
                }
            }
        
            @keyframes fill {
                100%{
                    <!-- transform: scale(1); -->
                    fill: #fff;
                }
            }

            @keyframes hidding{
                100%{
                    opacity: 0;
                }
            }

            @keyframes scaling{
                100%{
                    transform: scale(0.6);
                }
            }

            .cls-1{
                fill:#4c4c4c;
                stroke-dasharray: 1500;
                stroke-dashoffset: 1500;
                opacity: 0;
                fill: #4c4c4c;
                stroke: #fff;
                stroke-width: 1px;
                animation: show 1.3s 3s ease-in-out forwards;
            }
            .cls-2{
                stroke-dasharray: 1500;
                stroke-dashoffset: 1500;
                fill: transparent;
                stroke: #fff;
                stroke-width: 1px;
                animation: 
                    anim 2s ease-in-out, 
                    paint 3s ease-in-out forwards,
                    fill 1.3s 2.2s ease-in-out forwards;
            }

            .logo-group{
                transform-origin: 50% 50%;
                animation: scaling 1.3s 4.2s ease-out forwards;
            }
            <!-- .logo-group:hover .cls-2{
                fill: #7c9497;
            } -->
            <!-- #F6BABB -->
        </style>
    </defs>
    <title>Shkvo</title>
    <g class="logo-group">
        <path class="cls-1" d="M384.89,243.55c0,.1,0,.33.08.7s.05.78.06,1.25,0,.93,0,1.39a4.52,4.52,0,0,1-.12,1,28.1,28.1,0,0,1-2.85,6A79,79,0,0,1,377,261.2q-3,3.88-6.63,7.91t-7.47,7.65q-3.82,3.63-7.62,6.59a49.18,49.18,0,0,1-7.12,4.72l-1.76-2.27L344.19,283q-1.15-1.5-2.29-3t-2.08-3q2.64-1.68,6.15-4.43t7.29-6.12q3.78-3.37,7.51-7t6.69-6.92a73.17,73.17,0,0,0,4.89-6,10.69,10.69,0,0,0,2.13-4.32,1.39,1.39,0,0,0-.35-1.14,2.67,2.67,0,0,0-1.62-.33,42.19,42.19,0,0,0-10.86,1.76,95.24,95.24,0,0,0-13.79,5.09A145.8,145.8,0,0,0,317,266.62a129.79,129.79,0,0,0-14.18,13.33,92.52,92.52,0,0,0-11.5,15.45q5.15-.07,9.86-.4t9-.7q4.29-.37,8.18-.66t7.49-.29a4.42,4.42,0,0,1,3.47,2.05,18.18,18.18,0,0,1,2.6,4.91,25.34,25.34,0,0,1,1.36,5.86,12.4,12.4,0,0,1-.23,4.83,31.05,31.05,0,0,1-5.86,10.44,70.91,70.91,0,0,1-10.27,10.11,103.86,103.86,0,0,1-13.21,9.08A122.16,122.16,0,0,1,289,348a102,102,0,0,1-14.87,4.91,57.44,57.44,0,0,1-13.51,1.79,7.44,7.44,0,0,1-3.56-.6c-1.24-.56-2.6-1.62-4.21-4.71a22.73,22.73,0,0,1-3-10.71,23.13,23.13,0,0,1,4-13,23.53,23.53,0,0,1,9.21-7.87,34,34,0,0,1,6.92-.58,38.81,38.81,0,0,1,19.83,6.33c13.4,8.34,74.37,24.15,109.58,30.25,43.34,7.51,89.82,15.56,137.58-.67,9.84-3.34,38.21-14,40.75-9.25,1,1.91-2,6.31-4.75,8.75a18.21,18.21,0,0,1-8.75,4.17c-58.54,11.06-78.5,10.5-78.5,10.5a584.84,584.84,0,0,1-86.83-8.83c-20.5-3.67-32.36-5.79-49-10.83-21.95-6.64-45.73-8.78-65.92-19.67-2.4-1.3-11.09-6.15-17.75-3a11.38,11.38,0,0,0-5.41,5.39c-1.05,2.37-1.67,6.37-.08,7.46a1.48,1.48,0,0,0,.28.15c.92.38,2.74.1,12.19-1.76a105.74,105.74,0,0,0,13.86-3.77A85.36,85.36,0,0,0,301,326.16a70.8,70.8,0,0,0,12.54-8.9,48.92,48.92,0,0,0,9.81-12q-4.27.07-7.81.4t-6.89.73q-3.35.4-6.8.7t-7.56.29q-1.32,0-2.85,0t-3-.22a13.11,13.11,0,0,1-2.74-.62,4,4,0,0,1-1.89-1.25,36.61,36.61,0,0,1-2.72-3.55,25.32,25.32,0,0,1-2.13-3.81,14.3,14.3,0,0,1-1.15-3.92,8.76,8.76,0,0,1,.29-3.81,44.63,44.63,0,0,1,6.58-12.41A105.05,105.05,0,0,1,296.57,264a155.49,155.49,0,0,1,15.81-13.51,145.31,145.31,0,0,1,18.26-11.68,111.29,111.29,0,0,1,19.24-8.2,62.07,62.07,0,0,1,18.74-3.08,14.29,14.29,0,0,1,5.46,1,13.1,13.1,0,0,1,4,2.49,15.47,15.47,0,0,1,2.77,3.41,29.69,29.69,0,0,1,1.89,3.63A56.93,56.93,0,0,1,384.89,243.55Z" transform="translate(-248.54 -225.92)" />
        <path class="cls-1" d="M383.79,336.52a8.81,8.81,0,0,0,3.22-1q2.12-1,4.8-2.42t5.57-3.26q2.89-1.79,5.58-3.52t4.81-3.15l3.22-2.16q.46.66,1.06,1.68t1.14,1.9q-2.11,1.61-5.2,3.85t-6.6,4.58q-3.5,2.35-7.2,4.61t-7.11,4.1a57.74,57.74,0,0,1-6.24,2.93,13.33,13.33,0,0,1-4.51,1.1,7.94,7.94,0,0,1-3-.7,14,14,0,0,1-3.05-1.76A9.11,9.11,0,0,1,368,341a2.94,2.94,0,0,1-.44-2.53,41.48,41.48,0,0,1,3.41-7.32q2.37-4.17,5.22-8.57t5.88-8.68q3-4.28,5.53-7.65a12.2,12.2,0,0,0-2.76,1.61q-2.13,1.47-5.29,4T372.51,318q-3.91,3.55-8,7.95t-8.14,9.49a102,102,0,0,0-7.46,10.73,3.68,3.68,0,0,1-1,1.17,2.51,2.51,0,0,1-1.47.37,4.26,4.26,0,0,1-1.85-.66,23.83,23.83,0,0,1-2.45-1.57q-1.26-.92-2.41-1.94a14.88,14.88,0,0,1-1.78-1.83,6.69,6.69,0,0,1-.44-1,2.24,2.24,0,0,1,.11-1.32,69.37,69.37,0,0,1,5.24-11.87q3.76-7,9.1-15.27T363.84,295q6.51-9,13.44-17.61t14-16.44q7-7.8,13.37-13.77a101,101,0,0,1,11.58-9.59q5.25-3.63,8.76-3.85a9.62,9.62,0,0,1,2.91,1.61,18.47,18.47,0,0,1,2.52,2.42,26.21,26.21,0,0,1,2,2.56,15.13,15.13,0,0,1,1.22,2.12,2.62,2.62,0,0,1,.16,1.39,7.71,7.71,0,0,1-.21,1.17,25.69,25.69,0,0,1-3.46,6.52,106.06,106.06,0,0,1-6.77,8.72q-4.11,4.83-9.58,10.36T401.89,282q-6.36,5.82-13.48,11.76t-14.61,11.5q-2.68,4-5,7.69,5.21-4.1,9.36-6.88t7.21-4.43a36.73,36.73,0,0,1,5.07-2.34,10.27,10.27,0,0,1,3-.7,5,5,0,0,1,2.09.84,25.8,25.8,0,0,1,2.9,2,24.1,24.1,0,0,1,2.63,2.42,4.44,4.44,0,0,1,1.28,2.05,1.9,1.9,0,0,1-.3,1,10.35,10.35,0,0,1-.6,1q-1.26,2-3,4.58T394.77,318q-1.95,2.89-3.87,5.82t-3.48,5.38q-1.56,2.46-2.64,4.32a15.47,15.47,0,0,0-1.31,2.6Q383.35,336.52,383.79,336.52Zm12.81-63q-2.9,3.74-5.68,7.43t-5.46,7.43q6.83-6.3,13.43-12.78t12-12.45a141.47,141.47,0,0,0,9.19-11,30.29,30.29,0,0,0,4.79-8.5q.49-1.61-.09-1.61-.88,0-3.4,2.38T415.14,251q-3.77,4.17-8.5,10T396.6,273.53Z" transform="translate(-248.54 -225.92)" />
        <path class="cls-1" d="M446.55,335.35a9,9,0,0,0,3.24-.88q2.06-.88,4.6-2.23t5.29-3q2.75-1.68,5.26-3.3t4.54-3l3.14-2.12q.46.66,1.06,1.68t1.14,1.9q-2.1,1.61-5.23,3.92T462.9,333q-3.56,2.42-7.34,4.83t-7.25,4.32a64.32,64.32,0,0,1-6.32,3.08,12.83,12.83,0,0,1-4.53,1.17,9.48,9.48,0,0,1-4.82-1.13,10.67,10.67,0,0,1-3.28-2.93,17.94,17.94,0,0,1-2.23-4.1,44.81,44.81,0,0,1-1.56-4.72q-1.74,1.61-3.61,3.55t-3.51,3.7q-1.64,1.76-2.77,3.08t-1.44,1.61a2.47,2.47,0,0,1-.7.84,1.8,1.8,0,0,1-1,.26,4.24,4.24,0,0,1-2.34-.84,10.87,10.87,0,0,1-2.36-2.23,28.39,28.39,0,0,1-2.11-3,17.51,17.51,0,0,1-1.58-3.33,3.29,3.29,0,0,1-.17-1.83,19.56,19.56,0,0,1,.61-2.49,72.49,72.49,0,0,1,4.51-10.91q3-6.08,7.2-12.78t9.32-13.84q5.15-7.14,10.88-14.14t11.94-13.66q6.21-6.66,12.45-12.45a161.33,161.33,0,0,1,12.33-10.4,82.62,82.62,0,0,1,11.75-7.54,6.64,6.64,0,0,1,1.53-.59,5.37,5.37,0,0,1,1.11-.15,4,4,0,0,1,2.19,1,24.87,24.87,0,0,1,2.68,2.38q1.37,1.39,2.52,2.78a14.61,14.61,0,0,1,1.61,2.27,3.17,3.17,0,0,1-.14,1.9q-1.48,4.83-6.91,12a164.54,164.54,0,0,1-13.94,15.89q-8.51,8.68-19.8,18.42t-24.47,19.56q-2.24,3.73-4.4,7.43t-4.18,7.43q9.91-9.89,17-15.64a126.24,126.24,0,0,1,11.78-8.72,35.87,35.87,0,0,1,7.35-3.81,14.76,14.76,0,0,1,3.59-.84,2.66,2.66,0,0,1,1.81.92,10.83,10.83,0,0,1,1.66,2.12,25.56,25.56,0,0,1,1.26,2.34,11.6,11.6,0,0,1,.67,1.65q-.15.73-2.44,3a74.73,74.73,0,0,1-6,5.16q-3.75,2.93-8.67,6.19a104.83,104.83,0,0,1-10.38,6,39.38,39.38,0,0,0,2.42,5.27,16.4,16.4,0,0,0,2,2.86A4.66,4.66,0,0,0,446.55,335.35Zm10.23-59.11q-3.54,4.39-7.48,9.74t-8,11.35q11-9.23,19.12-17.14t13.83-14.32A100.08,100.08,0,0,0,483,254.56a34.74,34.74,0,0,0,4.19-8.2,3.79,3.79,0,0,0,.11-.48c0-.17-.08-.26-.32-.26q-.88,0-3.48,2.05a82.71,82.71,0,0,0-6.6,6q-4,4-9.13,9.63T456.78,276.24Z" transform="translate(-248.54 -225.92)" />
        <path class="cls-1" d="M501.86,335.05a10.8,10.8,0,0,1-5-1q-3.2,2.56-6.52,4.8t-6.41,4a41.73,41.73,0,0,1-5.89,2.75,18.43,18.43,0,0,1-5,1.17,6.7,6.7,0,0,1-2.89-1,14.85,14.85,0,0,1-3.35-2.45,11.54,11.54,0,0,1-2.46-3.44,5.3,5.3,0,0,1-.3-3.92,62.46,62.46,0,0,1,3.92-9.7q2.44-4.87,5.33-9.63t6-9.34q3.12-4.58,6-8.83a56,56,0,0,1,6.15,3.74,24.81,24.81,0,0,1,5.15,4.83q-1.77,2.2-3.74,5.05T488.77,318q-2,3.08-3.79,6.15t-3.28,5.71q-1.47,2.64-2.45,4.65A23.13,23.13,0,0,0,478,337.4a2,2,0,0,0-.07,1.06c.07.32.3.48.7.48a7.21,7.21,0,0,0,2.82-.73,31.77,31.77,0,0,0,3.63-1.94,47.86,47.86,0,0,0,4.13-2.86q2.15-1.65,4.25-3.48a8,8,0,0,1,.07-4.54,22.12,22.12,0,0,1,1.61-3.7q1.13-2.16,2.66-4.5t3.24-4.72q1.72-2.38,3.41-4.43t3.15-3.59a18.26,18.26,0,0,1,2.49-2.27,14.83,14.83,0,0,1,3,1.79,19.21,19.21,0,0,1,2.63,2.42,12.05,12.05,0,0,1,1.77,2.49,3.65,3.65,0,0,1,.52,2,14.43,14.43,0,0,1-1.83,3.59,48.6,48.6,0,0,1-3.37,4.43q-2,2.38-4.6,5t-5.52,5.24a7.53,7.53,0,0,0,.84.26,4.66,4.66,0,0,0,1.1.11,23.08,23.08,0,0,0,5.38-.59,24.7,24.7,0,0,0,4.85-1.72,37.17,37.17,0,0,0,4.89-2.82q2.49-1.68,5.51-3.88l1.2,1.72a17.12,17.12,0,0,1,1.15,1.87q-4,3.08-7.4,5.16a46.71,46.71,0,0,1-6.45,3.37,31.88,31.88,0,0,1-6,1.87A29.5,29.5,0,0,1,501.86,335.05Z" transform="translate(-248.54 -225.92)" />
        <path class="cls-1" d="M528.7,335.2q-.67,2.2.94,2.2t5.28-2.67a82.13,82.13,0,0,0,7.86-6.78,11.89,11.89,0,0,1,.25-1.43q.15-.62.31-1.14a27.08,27.08,0,0,1,1.39-3.48,22.83,22.83,0,0,1,3-4.58,42,42,0,0,1,3.31-3.88q1.54-1.68,3.6-3.63A48,48,0,0,1,559,306.2l.57-.44q.46.88,1.21,2.38t1.48,3.08q.73,1.58,1.24,2.89a9.42,9.42,0,0,1,.57,1.83,24.13,24.13,0,0,1-3.06,6.3,50.23,50.23,0,0,1-4.94,6.23,25.09,25.09,0,0,0,6.35-1.26c1.17-.39,2-.77,2.5-1A52.48,52.48,0,0,0,575,320.06a31.78,31.78,0,0,0,5.92-5.87,27.3,27.3,0,0,0,4.11-7.41c2.63-7.57-1-12.13.73-13.34,1.19-.84,3.85.68,5,2.75.95,1.67.76,3.39.49,5.75a27.14,27.14,0,0,1-4,11,32.29,32.29,0,0,1-3.77,4.83A72.53,72.53,0,0,1,569.38,329a43.21,43.21,0,0,1-7,3.37,36.21,36.21,0,0,1-6.59,1.79,38.67,38.67,0,0,1-6.47.55,71.05,71.05,0,0,1-6.82,4.83,65.66,65.66,0,0,1-7,3.81,42.62,42.62,0,0,1-6.66,2.49,22.19,22.19,0,0,1-5.84.88,7.23,7.23,0,0,1-4.14-1.32,12.12,12.12,0,0,1-3.25-3.26,13.42,13.42,0,0,1-1.88-4.14,7.08,7.08,0,0,1-.06-3.88,53.07,53.07,0,0,1,23.43-29.81,50,50,0,0,1,13.46-5.57,2.49,2.49,0,0,1,.84-.22,7.85,7.85,0,0,1,.94-.07,2.92,2.92,0,0,1,1.93.77,10.23,10.23,0,0,1,1.6,1.72,9.07,9.07,0,0,1,1.08,1.87,2.33,2.33,0,0,1,.29,1.21,4,4,0,0,1-1.38.92,31.89,31.89,0,0,0-3.13,1.87,56.64,56.64,0,0,0-5,3.77A86.89,86.89,0,0,0,541,317a60.46,60.46,0,0,0-8.63,10.73A37.76,37.76,0,0,0,528.7,335.2Z" transform="translate(-248.54 -225.92)" />
        <path class="cls-1" d="M386.76,245.67c0,.1,0,.33.08.7s.05.78.06,1.25,0,.93,0,1.39a4.52,4.52,0,0,1-.12,1,28.1,28.1,0,0,1-2.85,6,79,79,0,0,1-5.07,7.36q-3,3.88-6.63,7.91t-7.47,7.65q-3.82,3.63-7.62,6.59A49.18,49.18,0,0,1,350,290.2l-1.76-2.27-2.18-2.82q-1.15-1.5-2.29-3t-2.08-3q2.64-1.68,6.15-4.43t7.29-6.12q3.78-3.37,7.51-7t6.69-6.92a73.17,73.17,0,0,0,4.89-6,10.69,10.69,0,0,0,2.13-4.32,1.39,1.39,0,0,0-.35-1.14,2.67,2.67,0,0,0-1.62-.33,42.19,42.19,0,0,0-10.86,1.76,95.24,95.24,0,0,0-13.79,5.09,145.8,145.8,0,0,0-30.85,19.08,129.79,129.79,0,0,0-14.18,13.33,92.52,92.52,0,0,0-11.5,15.45q5.15-.07,9.86-.4t9-.7q4.29-.37,8.18-.66t7.49-.29a4.42,4.42,0,0,1,3.47,2.05,18.18,18.18,0,0,1,2.6,4.91,25.34,25.34,0,0,1,1.36,5.86,12.4,12.4,0,0,1-.23,4.83,31.05,31.05,0,0,1-5.86,10.44,70.91,70.91,0,0,1-10.27,10.11,103.86,103.86,0,0,1-13.21,9.08,122.16,122.16,0,0,1-14.73,7.32A102,102,0,0,1,276,355a57.44,57.44,0,0,1-13.51,1.79,7.44,7.44,0,0,1-3.56-.6c-1.24-.56-2.6-1.62-4.21-4.71a22.73,22.73,0,0,1-3-10.71,23.13,23.13,0,0,1,4-13,23.53,23.53,0,0,1,9.21-7.87,34,34,0,0,1,6.92-.58,38.81,38.81,0,0,1,19.83,6.33c13.4,8.34,74.37,24.15,109.58,30.25a354.15,354.15,0,0,0,73.33,6.63c35.69-.53,50.64-6.3,64.25-7.29,1.91-.14,7.95-2.22,15.92-4.21h0c8.25-8,16.78-11.75,21.5-9,.43.25,3.48,2.23,3.53,5a6.2,6.2,0,0,1-1.09,3.16,15.13,15.13,0,0,1-3.86,4.55,23,23,0,0,1-8.75,4.17c-58.54,11.06-78.5,10.5-78.5,10.5a584.84,584.84,0,0,1-86.83-8.83c-20.5-3.67-32.36-5.79-49-10.83C329.85,343,306.06,340.9,285.88,330c-2.4-1.3-11.09-6.15-17.75-3a11.38,11.38,0,0,0-5.41,5.39c-1.05,2.37-1.67,6.37-.08,7.46a1.48,1.48,0,0,0,.28.15c.92.38,2.74.1,12.19-1.76A105.74,105.74,0,0,0,289,334.48a85.36,85.36,0,0,0,13.87-6.19,70.8,70.8,0,0,0,12.54-8.9,48.92,48.92,0,0,0,9.81-12q-4.27.07-7.81.4t-6.89.73q-3.35.4-6.8.7t-7.56.29q-1.32,0-2.85,0t-3-.22a13.11,13.11,0,0,1-2.74-.62,4,4,0,0,1-1.89-1.25,36.61,36.61,0,0,1-2.72-3.55,25.32,25.32,0,0,1-2.13-3.81,14.3,14.3,0,0,1-1.15-3.92,8.76,8.76,0,0,1,.29-3.81,44.63,44.63,0,0,1,6.58-12.41,105.05,105.05,0,0,1,11.95-13.81,155.48,155.48,0,0,1,15.81-13.51,145.31,145.31,0,0,1,18.26-11.68,111.29,111.29,0,0,1,19.24-8.2,62.07,62.07,0,0,1,18.74-3.08,14.29,14.29,0,0,1,5.46,1,13.1,13.1,0,0,1,4,2.49,15.47,15.47,0,0,1,2.77,3.41,29.69,29.69,0,0,1,1.89,3.63A56.93,56.93,0,0,1,386.76,245.67Z" transform="translate(-248.54 -225.92)" />
        <path class="cls-1" d="M385.66,338.64a8.81,8.81,0,0,0,3.22-1q2.12-1,4.8-2.42t5.57-3.26q2.89-1.79,5.58-3.52t4.81-3.15l3.22-2.16q.46.66,1.06,1.68t1.14,1.9q-2.11,1.61-5.2,3.85t-6.6,4.58q-3.5,2.35-7.2,4.61t-7.11,4.1a57.74,57.74,0,0,1-6.24,2.93,13.33,13.33,0,0,1-4.51,1.1,7.94,7.94,0,0,1-3-.7,14,14,0,0,1-3.05-1.76,9.11,9.11,0,0,1-2.21-2.34,2.94,2.94,0,0,1-.44-2.53,41.48,41.48,0,0,1,3.41-7.32q2.37-4.17,5.22-8.57T384,316q3-4.28,5.53-7.65a12.2,12.2,0,0,0-2.76,1.61q-2.13,1.47-5.29,4t-7.06,6.08q-3.91,3.55-8,7.95t-8.14,9.49a102,102,0,0,0-7.46,10.73,3.68,3.68,0,0,1-1,1.17,2.51,2.51,0,0,1-1.47.37,4.26,4.26,0,0,1-1.85-.66,23.83,23.83,0,0,1-2.45-1.57q-1.26-.92-2.41-1.94a14.88,14.88,0,0,1-1.78-1.83,6.69,6.69,0,0,1-.44-1,2.24,2.24,0,0,1,.11-1.32,69.37,69.37,0,0,1,5.24-11.87q3.76-7,9.1-15.27t11.85-17.21q6.51-9,13.44-17.61t14-16.44q7-7.8,13.37-13.77a101,101,0,0,1,11.58-9.59q5.25-3.63,8.76-3.85a9.62,9.62,0,0,1,2.91,1.61,18.47,18.47,0,0,1,2.52,2.42,26.21,26.21,0,0,1,2,2.56,15.13,15.13,0,0,1,1.22,2.12,2.62,2.62,0,0,1,.16,1.39,7.71,7.71,0,0,1-.21,1.17,25.69,25.69,0,0,1-3.46,6.52,106.06,106.06,0,0,1-6.77,8.72q-4.11,4.83-9.58,10.36t-11.82,11.35q-6.36,5.82-13.48,11.76t-14.61,11.5q-2.68,4-5,7.69,5.21-4.1,9.36-6.88t7.21-4.43a36.73,36.73,0,0,1,5.07-2.34,10.27,10.27,0,0,1,3-.7,5,5,0,0,1,2.09.84,25.8,25.8,0,0,1,2.9,2A24.1,24.1,0,0,1,402.9,306a4.44,4.44,0,0,1,1.28,2.05,1.9,1.9,0,0,1-.3,1,10.35,10.35,0,0,1-.6,1q-1.26,2-3,4.58t-3.66,5.49q-1.95,2.89-3.87,5.82t-3.48,5.38q-1.56,2.46-2.64,4.32a15.47,15.47,0,0,0-1.31,2.6Q385.22,338.64,385.66,338.64Zm12.81-63q-2.9,3.74-5.68,7.43t-5.46,7.43q6.83-6.3,13.43-12.78t12-12.45a141.47,141.47,0,0,0,9.19-11,30.29,30.29,0,0,0,4.79-8.5q.49-1.61-.09-1.61-.88,0-3.4,2.38T417,253.1q-3.77,4.17-8.5,10T398.47,275.66Z" transform="translate(-248.54 -225.92)" />
        <path class="cls-1" d="M448.42,337.47a9,9,0,0,0,3.24-.88q2.06-.88,4.6-2.23t5.29-3q2.75-1.68,5.26-3.3t4.54-3l3.14-2.12q.46.66,1.06,1.68t1.14,1.9q-2.1,1.61-5.23,3.92t-6.68,4.72q-3.56,2.42-7.34,4.83t-7.25,4.32a64.32,64.32,0,0,1-6.32,3.08,12.83,12.83,0,0,1-4.53,1.17,9.48,9.48,0,0,1-4.82-1.13,10.67,10.67,0,0,1-3.28-2.93,17.94,17.94,0,0,1-2.23-4.1,44.81,44.81,0,0,1-1.56-4.72q-1.74,1.61-3.61,3.55t-3.51,3.7q-1.64,1.76-2.77,3.08t-1.44,1.61a2.47,2.47,0,0,1-.7.84,1.8,1.8,0,0,1-1,.26,4.24,4.24,0,0,1-2.34-.84,10.87,10.87,0,0,1-2.36-2.23,28.39,28.39,0,0,1-2.11-3,17.51,17.51,0,0,1-1.58-3.33,3.29,3.29,0,0,1-.17-1.83,19.56,19.56,0,0,1,.61-2.49A72.49,72.49,0,0,1,410.94,324q3-6.08,7.2-12.78t9.32-13.84q5.15-7.14,10.88-14.14t11.94-13.66q6.21-6.66,12.45-12.45a161.33,161.33,0,0,1,12.33-10.4,82.62,82.62,0,0,1,11.75-7.54,6.64,6.64,0,0,1,1.53-.59,5.37,5.37,0,0,1,1.11-.15,4,4,0,0,1,2.19,1,24.87,24.87,0,0,1,2.68,2.38q1.37,1.39,2.52,2.78a14.61,14.61,0,0,1,1.61,2.27,3.17,3.17,0,0,1-.14,1.9q-1.48,4.83-6.91,12a164.54,164.54,0,0,1-13.94,15.89q-8.51,8.68-19.8,18.42t-24.47,19.56q-2.24,3.73-4.4,7.43t-4.18,7.43q9.91-9.89,17-15.64a126.24,126.24,0,0,1,11.78-8.72,35.87,35.87,0,0,1,7.35-3.81,14.76,14.76,0,0,1,3.59-.84,2.66,2.66,0,0,1,1.81.92,10.83,10.83,0,0,1,1.66,2.12,25.56,25.56,0,0,1,1.26,2.34,11.6,11.6,0,0,1,.67,1.65q-.15.73-2.44,3a74.73,74.73,0,0,1-6,5.16q-3.75,2.93-8.67,6.19a104.83,104.83,0,0,1-10.38,6,39.38,39.38,0,0,0,2.42,5.27,16.4,16.4,0,0,0,2,2.86A4.66,4.66,0,0,0,448.42,337.47Zm10.23-59.11q-3.54,4.39-7.48,9.74t-8,11.35q11-9.23,19.12-17.14T476.07,268a100.08,100.08,0,0,0,8.84-11.32,34.74,34.74,0,0,0,4.19-8.2,3.79,3.79,0,0,0,.11-.48c0-.17-.08-.26-.32-.26q-.88,0-3.48,2.05a82.71,82.71,0,0,0-6.6,6q-4,4-9.13,9.63T458.66,278.37Z" transform="translate(-248.54 -225.92)" />
        <path class="cls-1" d="M503.74,337.18a10.8,10.8,0,0,1-5-1q-3.2,2.56-6.52,4.8t-6.41,4a41.73,41.73,0,0,1-5.89,2.75,18.43,18.43,0,0,1-5,1.17,6.7,6.7,0,0,1-2.89-1,14.85,14.85,0,0,1-3.35-2.45,11.54,11.54,0,0,1-2.46-3.44,5.3,5.3,0,0,1-.3-3.92,62.46,62.46,0,0,1,3.92-9.7q2.44-4.87,5.33-9.63t6-9.34q3.12-4.58,6-8.83a56,56,0,0,1,6.15,3.74,24.81,24.81,0,0,1,5.15,4.83q-1.77,2.2-3.74,5.05t-3.94,5.93q-2,3.08-3.79,6.15T483.57,332q-1.47,2.64-2.45,4.65a23.13,23.13,0,0,0-1.25,2.89,2,2,0,0,0-.07,1.06c.07.32.3.48.7.48a7.21,7.21,0,0,0,2.82-.73,31.77,31.77,0,0,0,3.63-1.94,47.86,47.86,0,0,0,4.13-2.86q2.15-1.65,4.25-3.48a8,8,0,0,1,.07-4.54,22.12,22.12,0,0,1,1.61-3.7q1.13-2.16,2.66-4.5t3.24-4.72q1.72-2.38,3.41-4.43t3.15-3.59a18.26,18.26,0,0,1,2.49-2.27,14.83,14.83,0,0,1,3,1.79,19.21,19.21,0,0,1,2.63,2.42,12.05,12.05,0,0,1,1.77,2.49,3.65,3.65,0,0,1,.52,2A14.43,14.43,0,0,1,518,316.6a48.6,48.6,0,0,1-3.37,4.43q-2,2.38-4.6,5t-5.52,5.24a7.53,7.53,0,0,0,.84.26,4.66,4.66,0,0,0,1.1.11,23.08,23.08,0,0,0,5.38-.59,24.7,24.7,0,0,0,4.85-1.72,37.17,37.17,0,0,0,4.89-2.82q2.49-1.68,5.51-3.88l1.2,1.72a17.12,17.12,0,0,1,1.15,1.87q-4,3.08-7.4,5.16a46.71,46.71,0,0,1-6.45,3.37,31.88,31.88,0,0,1-6,1.87A29.5,29.5,0,0,1,503.74,337.18Z" transform="translate(-248.54 -225.92)" />
        <path class="cls-1" d="M530.57,337.32q-.67,2.2.94,2.2t5.28-2.67a82.13,82.13,0,0,0,7.86-6.78,11.9,11.9,0,0,1,.25-1.43q.15-.62.31-1.14a27.08,27.08,0,0,1,1.39-3.48,22.83,22.83,0,0,1,3-4.58,42,42,0,0,1,3.31-3.88q1.54-1.68,3.6-3.63a48,48,0,0,1,4.33-3.63l.57-.44q.46.88,1.21,2.38t1.48,3.08q.73,1.58,1.24,2.89a9.42,9.42,0,0,1,.57,1.83,24.13,24.13,0,0,1-3.06,6.3,50.22,50.22,0,0,1-4.94,6.23,25.09,25.09,0,0,0,6.35-1.26c1.17-.39,2-.77,2.5-1a52.48,52.48,0,0,0,10.07-6.17,31.78,31.78,0,0,0,5.92-5.87,22.41,22.41,0,0,0,4.11-7.41c2.1-7.17-1.58-13.47.22-14.32.88-.42,2.92.57,3.44,1.19l.31.38c.47.56.71.83.88,1a9.91,9.91,0,0,1,.92,1.38c1.08,1.91.49,5.52.49,5.52a28.5,28.5,0,0,1-7.76,15.83,72.53,72.53,0,0,1-14.17,11.21,43.21,43.21,0,0,1-7,3.37,36.21,36.21,0,0,1-6.59,1.79,38.67,38.67,0,0,1-6.47.55,71.05,71.05,0,0,1-6.82,4.83,65.66,65.66,0,0,1-7,3.81,42.63,42.63,0,0,1-6.66,2.49,22.19,22.19,0,0,1-5.84.88,7.23,7.23,0,0,1-4.14-1.32,12.12,12.12,0,0,1-3.25-3.26,13.42,13.42,0,0,1-1.88-4.14,7.08,7.08,0,0,1-.06-3.88A53.07,53.07,0,0,1,539,306.42a50,50,0,0,1,13.46-5.57,2.49,2.49,0,0,1,.84-.22,7.85,7.85,0,0,1,.94-.07,2.92,2.92,0,0,1,1.93.77,10.23,10.23,0,0,1,1.6,1.72,9.07,9.07,0,0,1,1.08,1.87,2.33,2.33,0,0,1,.29,1.21,4,4,0,0,1-1.38.92,31.89,31.89,0,0,0-3.13,1.87,56.65,56.65,0,0,0-5,3.77,86.89,86.89,0,0,0-6.82,6.48,60.46,60.46,0,0,0-8.63,10.73A37.76,37.76,0,0,0,530.57,337.32Z" transform="translate(-248.54 -225.92)" />
        <path class="cls-2" d="M380.74,252.26c-1.11,2.23-2.44,3.94-5.07,7.36q-3,3.88-6.63,7.91t-7.47,7.65q-3.82,3.63-7.62,6.59a49.18,49.18,0,0,1-7.12,4.72l-1.76-2.27-2.18-2.82q-1.15-1.5-2.29-3t-2.08-3q2.64-1.68,6.15-4.43t7.29-6.12q3.78-3.37,7.51-7t6.69-6.92a73.17,73.17,0,0,0,4.89-6,10.69,10.69,0,0,0,2.13-4.32,1.39,1.39,0,0,0-.35-1.14,2.67,2.67,0,0,0-1.62-.33,42.19,42.19,0,0,0-10.86,1.76A95.24,95.24,0,0,0,346.56,246,145.8,145.8,0,0,0,315.71,265a129.79,129.79,0,0,0-14.18,13.33A92.52,92.52,0,0,0,290,293.82q5.15-.07,9.86-.4t9-.7q4.29-.37,8.18-.66t7.49-.29a4.42,4.42,0,0,1,3.47,2.05,18.18,18.18,0,0,1,2.6,4.91,25.34,25.34,0,0,1,1.36,5.86,12.4,12.4,0,0,1-.23,4.83,31.05,31.05,0,0,1-5.86,10.44A70.91,70.91,0,0,1,315.64,330,103.86,103.86,0,0,1,302.42,339a122.16,122.16,0,0,1-14.73,7.32,102,102,0,0,1-14.87,4.91,57.44,57.44,0,0,1-13.51,1.79,7.44,7.44,0,0,1-3.56-.6c-1.24-.56-2.6-1.62-4.21-4.71a22.73,22.73,0,0,1-3-10.71,23.13,23.13,0,0,1,4-13,23.53,23.53,0,0,1,9.21-7.87,34,34,0,0,1,6.92-.58,38.81,38.81,0,0,1,19.83,6.33c13.4,8.34,74.37,24.15,109.58,30.25,43.34,7.51,89.82,15.56,137.58-.67,9.84-3.34,38.21-14,40.75-9.25,1,1.91-2,6.31-4.75,8.75a18.21,18.21,0,0,1-8.75,4.17c-58.54,11.06-78.5,10.5-78.5,10.5a584.84,584.84,0,0,1-86.83-8.83c-20.5-3.67-32.36-5.79-49-10.83-21.95-6.64-45.73-8.78-65.92-19.67-2.4-1.3-11.09-6.15-17.75-3a11.38,11.38,0,0,0-5.41,5.39c-1.05,2.37-1.67,6.37-.08,7.46a1.48,1.48,0,0,0,.28.15c.92.38,2.74.1,12.19-1.76a105.74,105.74,0,0,0,13.86-3.77,85.36,85.36,0,0,0,13.87-6.19,70.8,70.8,0,0,0,12.54-8.9,48.92,48.92,0,0,0,9.81-12q-4.27.07-7.81.4t-6.89.73q-3.35.4-6.8.7t-7.56.29q-1.32,0-2.85,0t-3-.22a13.11,13.11,0,0,1-2.74-.62,4,4,0,0,1-1.89-1.25,36.61,36.61,0,0,1-2.72-3.55,25.32,25.32,0,0,1-2.13-3.81,14.3,14.3,0,0,1-1.15-3.92,8.76,8.76,0,0,1,.29-3.81,44.63,44.63,0,0,1,6.58-12.41,105.05,105.05,0,0,1,11.95-13.81,155.49,155.49,0,0,1,15.81-13.51,145.31,145.31,0,0,1,18.26-11.68,111.29,111.29,0,0,1,19.24-8.2,62.07,62.07,0,0,1,18.74-3.08,14.29,14.29,0,0,1,5.46,1,13.1,13.1,0,0,1,4,2.49,15.47,15.47,0,0,1,2.77,3.41l.31.51a32.42,32.42,0,0,1,1.59,3.12,22.26,22.26,0,0,1,1.86,6.83C383.48,246.77,382.15,249.43,380.74,252.26Z" transform="translate(-248.54 -225.92)" />
        <path class="cls-2" d="M382.5,334.93a8.81,8.81,0,0,0,3.22-1q2.12-1,4.8-2.42t5.57-3.26q2.89-1.79,5.58-3.52t4.81-3.15l3.22-2.16q.46.66,1.06,1.68t1.14,1.9q-2.11,1.61-5.2,3.85t-6.6,4.58q-3.5,2.35-7.2,4.61t-7.11,4.1a57.74,57.74,0,0,1-6.24,2.93,13.33,13.33,0,0,1-4.51,1.1,7.94,7.94,0,0,1-3-.7,14,14,0,0,1-3.05-1.76,9.11,9.11,0,0,1-2.21-2.34,2.94,2.94,0,0,1-.44-2.53,41.48,41.48,0,0,1,3.41-7.32q2.37-4.17,5.22-8.57t5.88-8.68q3-4.28,5.53-7.65a12.2,12.2,0,0,0-2.76,1.61q-2.13,1.47-5.29,4t-7.06,6.08q-3.91,3.55-8,7.95t-8.14,9.49a102,102,0,0,0-7.46,10.73,3.68,3.68,0,0,1-1,1.17,2.51,2.51,0,0,1-1.47.37,4.26,4.26,0,0,1-1.85-.66,23.83,23.83,0,0,1-2.45-1.57q-1.26-.92-2.41-1.94a14.88,14.88,0,0,1-1.78-1.83,6.69,6.69,0,0,1-.44-1,2.24,2.24,0,0,1,.11-1.32,69.37,69.37,0,0,1,5.24-11.87q3.76-7,9.1-15.27t11.85-17.21q6.51-9,13.44-17.61t14-16.44q7-7.8,13.37-13.77A101,101,0,0,1,414.9,236q5.25-3.63,8.76-3.85a9.62,9.62,0,0,1,2.91,1.61,18.47,18.47,0,0,1,2.52,2.42,26.21,26.21,0,0,1,2,2.56,15.13,15.13,0,0,1,1.22,2.12,2.62,2.62,0,0,1,.16,1.39,7.71,7.71,0,0,1-.21,1.17,25.69,25.69,0,0,1-3.46,6.52,106.06,106.06,0,0,1-6.77,8.72q-4.11,4.83-9.58,10.36T400.6,280.41q-6.36,5.82-13.48,11.76t-14.61,11.5q-2.68,4-5,7.69,5.21-4.1,9.36-6.88t7.21-4.43a36.73,36.73,0,0,1,5.07-2.34,10.27,10.27,0,0,1,3-.7,5,5,0,0,1,2.09.84,25.8,25.8,0,0,1,2.9,2,24.1,24.1,0,0,1,2.63,2.42,4.44,4.44,0,0,1,1.28,2.05,1.9,1.9,0,0,1-.3,1,10.35,10.35,0,0,1-.6,1q-1.26,2-3,4.58t-3.66,5.49q-1.95,2.89-3.87,5.82t-3.48,5.38q-1.56,2.46-2.64,4.32a15.47,15.47,0,0,0-1.31,2.6Q382.06,334.93,382.5,334.93Zm12.81-63q-2.9,3.74-5.68,7.43t-5.46,7.43Q391,280.52,397.6,274t12-12.45a141.47,141.47,0,0,0,9.19-11,30.29,30.29,0,0,0,4.79-8.5q.49-1.61-.09-1.61-.88,0-3.4,2.38t-6.29,6.56q-3.77,4.17-8.5,10T395.31,271.95Z" transform="translate(-248.54 -225.92)" />
        <path class="cls-2" d="M445.26,333.76a9,9,0,0,0,3.24-.88q2.06-.88,4.6-2.23t5.29-3q2.75-1.68,5.26-3.3t4.54-3l3.14-2.12q.46.66,1.06,1.68t1.14,1.9q-2.1,1.61-5.23,3.92t-6.68,4.72q-3.56,2.42-7.34,4.83T447,340.57a64.32,64.32,0,0,1-6.32,3.08,12.83,12.83,0,0,1-4.53,1.17,9.48,9.48,0,0,1-4.82-1.13,10.67,10.67,0,0,1-3.28-2.93,17.94,17.94,0,0,1-2.23-4.1,44.81,44.81,0,0,1-1.56-4.72q-1.74,1.61-3.61,3.55t-3.51,3.7q-1.64,1.76-2.77,3.08t-1.44,1.61a2.47,2.47,0,0,1-.7.84,1.8,1.8,0,0,1-1,.26,4.24,4.24,0,0,1-2.34-.84,10.87,10.87,0,0,1-2.36-2.23,28.39,28.39,0,0,1-2.11-3,17.51,17.51,0,0,1-1.58-3.33,3.29,3.29,0,0,1-.17-1.83,19.56,19.56,0,0,1,.61-2.49,72.49,72.49,0,0,1,4.51-10.91q3-6.08,7.2-12.78t9.32-13.84q5.15-7.14,10.88-14.14t11.94-13.66q6.21-6.66,12.45-12.45A161.33,161.33,0,0,1,471.9,243a82.62,82.62,0,0,1,11.75-7.54,6.64,6.64,0,0,1,1.53-.59,5.37,5.37,0,0,1,1.11-.15,4,4,0,0,1,2.19,1,24.87,24.87,0,0,1,2.68,2.38q1.37,1.39,2.52,2.78a14.61,14.61,0,0,1,1.61,2.27,3.17,3.17,0,0,1-.14,1.9q-1.48,4.83-6.91,12A164.54,164.54,0,0,1,474.3,273q-8.51,8.68-19.8,18.42T430,311q-2.24,3.73-4.4,7.43t-4.18,7.43q9.91-9.89,17-15.64a126.24,126.24,0,0,1,11.78-8.72,35.87,35.87,0,0,1,7.35-3.81,14.76,14.76,0,0,1,3.59-.84,2.66,2.66,0,0,1,1.81.92,10.83,10.83,0,0,1,1.66,2.12,25.56,25.56,0,0,1,1.26,2.34,11.6,11.6,0,0,1,.67,1.65q-.15.73-2.44,3a74.73,74.73,0,0,1-6,5.16q-3.75,2.93-8.67,6.19a104.83,104.83,0,0,1-10.38,6,39.38,39.38,0,0,0,2.42,5.27,16.4,16.4,0,0,0,2,2.86A4.66,4.66,0,0,0,445.26,333.76Zm10.23-59.11q-3.54,4.39-7.48,9.74t-8,11.35q11-9.23,19.12-17.14t13.83-14.32A100.08,100.08,0,0,0,481.75,253a34.74,34.74,0,0,0,4.19-8.2,3.79,3.79,0,0,0,.11-.48c0-.17-.08-.26-.32-.26q-.88,0-3.48,2.05a82.71,82.71,0,0,0-6.6,6q-4,4-9.13,9.63T455.49,274.66Z" transform="translate(-248.54 -225.92)" />
        <path class="cls-2" d="M500.57,333.47a10.8,10.8,0,0,1-5-1q-3.2,2.56-6.52,4.8t-6.41,4a41.73,41.73,0,0,1-5.89,2.75,18.43,18.43,0,0,1-5,1.17,6.7,6.7,0,0,1-2.89-1,14.85,14.85,0,0,1-3.35-2.45,11.54,11.54,0,0,1-2.46-3.44,5.3,5.3,0,0,1-.3-3.92,62.46,62.46,0,0,1,3.92-9.7q2.44-4.87,5.33-9.63t6-9.34q3.12-4.58,6-8.83a56,56,0,0,1,6.15,3.74,24.81,24.81,0,0,1,5.15,4.83q-1.77,2.2-3.74,5.05t-3.94,5.93q-2,3.08-3.79,6.15t-3.28,5.71q-1.47,2.64-2.45,4.65a23.13,23.13,0,0,0-1.25,2.89,2,2,0,0,0-.07,1.06c.07.32.3.48.7.48a7.21,7.21,0,0,0,2.82-.73,31.77,31.77,0,0,0,3.63-1.94,47.86,47.86,0,0,0,4.13-2.86q2.15-1.65,4.25-3.48a8,8,0,0,1,.07-4.54,22.12,22.12,0,0,1,1.61-3.7q1.13-2.16,2.66-4.5t3.24-4.72q1.72-2.38,3.41-4.43t3.15-3.59a18.26,18.26,0,0,1,2.49-2.27,14.83,14.83,0,0,1,3,1.79,19.21,19.21,0,0,1,2.63,2.42,12.05,12.05,0,0,1,1.77,2.49,3.65,3.65,0,0,1,.52,2,14.43,14.43,0,0,1-1.83,3.59,48.6,48.6,0,0,1-3.37,4.43q-2,2.38-4.6,5t-5.52,5.24a7.53,7.53,0,0,0,.84.26,4.66,4.66,0,0,0,1.1.11,23.08,23.08,0,0,0,5.38-.59,24.7,24.7,0,0,0,4.85-1.72,37.17,37.17,0,0,0,4.89-2.82q2.49-1.68,5.51-3.88l1.2,1.72a17.12,17.12,0,0,1,1.15,1.87q-4,3.08-7.4,5.16a46.71,46.71,0,0,1-6.45,3.37,31.88,31.88,0,0,1-6,1.87A29.5,29.5,0,0,1,500.57,333.47Z" transform="translate(-248.54 -225.92)" />
        <path class="cls-2" d="M527.41,333.62q-.67,2.2.94,2.2t5.28-2.67a82.13,82.13,0,0,0,7.86-6.78,11.89,11.89,0,0,1,.25-1.43q.15-.62.31-1.14a27.08,27.08,0,0,1,1.39-3.48,22.83,22.83,0,0,1,3-4.58,42,42,0,0,1,3.31-3.88q1.54-1.68,3.6-3.63a48,48,0,0,1,4.33-3.63l.57-.44q.46.88,1.21,2.38t1.48,3.08q.73,1.58,1.24,2.89a9.42,9.42,0,0,1,.57,1.83,24.13,24.13,0,0,1-3.06,6.3,50.23,50.23,0,0,1-4.94,6.23,25.09,25.09,0,0,0,6.35-1.26c1.17-.39,2-.77,2.5-1a52.48,52.48,0,0,0,10.07-6.17,31.78,31.78,0,0,0,5.92-5.87,27.3,27.3,0,0,0,4.11-7.41c2.63-7.57-1-12.13.73-13.34,1.19-.84,3.85.68,5,2.75.95,1.67.76,3.39.49,5.75a27.14,27.14,0,0,1-4,11,32.29,32.29,0,0,1-3.77,4.83,72.53,72.53,0,0,1-14.17,11.21,43.21,43.21,0,0,1-7,3.37,36.21,36.21,0,0,1-6.59,1.79,38.67,38.67,0,0,1-6.47.55,71.05,71.05,0,0,1-6.82,4.83,65.66,65.66,0,0,1-7,3.81,42.62,42.62,0,0,1-6.66,2.49,22.19,22.19,0,0,1-5.84.88,7.23,7.23,0,0,1-4.14-1.32,12.12,12.12,0,0,1-3.25-3.26,13.42,13.42,0,0,1-1.88-4.14,7.08,7.08,0,0,1-.06-3.88,53.07,53.07,0,0,1,23.43-29.81,50,50,0,0,1,13.46-5.57,2.49,2.49,0,0,1,.84-.22,7.85,7.85,0,0,1,.94-.07,2.92,2.92,0,0,1,1.93.77,10.23,10.23,0,0,1,1.6,1.72,9.07,9.07,0,0,1,1.08,1.87,2.33,2.33,0,0,1,.29,1.21,4,4,0,0,1-1.38.92,31.89,31.89,0,0,0-3.13,1.87,56.64,56.64,0,0,0-5,3.77,86.89,86.89,0,0,0-6.82,6.48,60.46,60.46,0,0,0-8.63,10.73A37.76,37.76,0,0,0,527.41,333.62Z" transform="translate(-248.54 -225.92)" />
    </g>
</svg>