<?xml version="1.0" encoding="utf-8"?>
<!-- Generator: Adobe Illustrator 21.1.0, SVG Export Plug-In . SVG Version: 6.00 Build 0)  -->
<svg version="1.1" id="Слой_1" xmlns="http://www.w3.org/2000/svg" xmlns:xlink="http://www.w3.org/1999/xlink" x="0px" y="0px"
	 viewBox="0 0 841.9 595.3" style="enable-background:new 0 0 841.9 595.3;" xml:space="preserve">
<style type="text/css">
	@keyframes anim{
		0%{
			opacity: 0;
		}
		50%{
			opacity: 1;
		}
	}
	@keyframes tangle{
		0%{
			transform: translate(0px,0px);
		}
		50%{
			transform: translate(0px,20px);
		}
		100%{
			transform: translate(0px,0px);
		}
	}

	@keyframes paint{
		100%{
			stroke: #000;
			stroke-dashoffset: 0;
		}
	}
	
	@keyframes fill {
		100%{
			transform: scale(1);
			fill: #000;
		}
	}
	@keyframes hidding{
		100%{
			opacity: 0;
		}
	}

	@keyframes scaling{
		40%{
			transform: scale(1.04);
		}
		100%{
			transform: scale(1);
		}
	}
	.st0{
		stroke-dasharray: 768;
		stroke-dashoffset: 768;
		fill: transparent;
		stroke: #ccc;
		stroke-width: 1px;
		animation: 
			anim 2s ease-in-out, 
			paint 3s ease-in-out forwards,
			fill 1.3s 2.2s ease-in-out forwards,
			hidding 2s 3.1s ease-in-out forwards;
	}
	.logo-g{
		transform-origin: 50% 50%;
		animation: scaling 1.3s 2.57s ease-in-out forwards;
	}

</style>

<g class="logo-g">
	<path class="st0" d="M692.1,222c18.6,0,33.4,7.5,44.3,22.4c9.9,13.5,14.8,31.2,14.8,53c0,25-6.3,44.5-19,58.4
		c-10.7,11.7-24.1,17.5-40.1,17.5c-18.6,0-33.4-7.5-44.3-22.5c-9.9-13.5-14.8-31.2-14.8-52.9c0-25,6.4-44.5,19.2-58.5
		C662.8,227.8,676.1,222,692.1,222z M692.1,233.4c-14.5,0-25.9,6.3-34.1,18.8c-7.4,11.3-11.1,26.5-11.1,45.4
		c0,21.6,4.8,38.2,14.4,49.8c8,9.6,18.3,14.5,30.9,14.5c14.6,0,26-6.3,34.2-18.8c7.4-11.3,11-26.5,11-45.4
		c0-21.7-4.8-38.2-14.3-49.7C715.1,238.2,704.8,233.4,692.1,233.4z"/>
	<path class="st0 v" d="M613.8,224.6l-48.5,145.8h-17.1l-47.8-145.8h14.4l28.4,90.4c1.9,5.9,4.2,13.5,7,23c3.3,10.9,5.3,17.8,6.2,20.7
		h2.1c4.2-14.9,8.4-29.4,12.8-43.4l29.2-90.8H613.8z"/>
	<path class="st0 k" d="M477.9,224.6l-55,58.8l61,87h-15.8l-53.8-78.2l-25,26v52.2h-13V224.6h13v78.6l72-78.6H477.9z"/>
	<path class="st0 h" d="M331.2,224.6v145.8H318v-71.2h-77.4v71.2h-13.2V224.6h13.2v63.2H318v-63.2H331.2z"/>
	<path class="st0 s" d="M188.2,255.8L175,260c-5.5-17.8-16.7-26.8-33.6-26.8c-10.5,0-18.6,2.7-24.3,8c-5,4.6-7.5,10.6-7.5,18
		c0,8.7,2.7,15.3,8.2,19.8c4.8,3.8,12.7,7,23.8,9.8l5.9,1.7c18,4.6,30.2,10.6,36.5,18.1c4.9,5.8,7.4,13.8,7.4,24.1
		c0,13.2-4.9,23.4-14.6,30.8c-8.7,6.6-20.2,9.9-34.6,9.9c-13.8,0-25.3-3.5-34.4-10.4c-8-6.2-13.7-14.7-17.2-25.6l13.2-5
		c5.3,20,18,30,38.2,30c12.6,0,22-3,28.2-9c4.9-4.9,7.4-11.4,7.4-19.4c0-9-2.6-15.7-7.9-20.2c-5.1-4.3-14-8.1-26.9-11.3l-5.1-1.5
		c-16.5-4.2-27.8-9.9-34-17.1c-5.1-5.9-7.6-13.9-7.6-23.9c0-11.3,4.3-20.5,13-27.6c8.2-6.8,18.9-10.2,32-10.2
		C164.6,222,180.2,233.3,188.2,255.8z"/>
</g>
</svg>
