<svg xmlns="http://www.w3.org/2000/svg" viewBox="0 0 99.04 99.04"><defs><style>.cls-1,.cls-2{fill:#262626;}.cls-2{fill-rule:evenodd;}</style></defs><title>socРесурс 5</title><g id="Слой_2" data-name="Слой 2"><g id="_16" data-name="16"><path class="cls-1" d="M49.52,0a49.52,49.52,0,1,1-35,14.5A49.33,49.33,0,0,1,49.52,0ZM81.79,17.25A45.65,45.65,0,1,0,95.17,49.52,45.51,45.51,0,0,0,81.79,17.25Z"/><path class="cls-2" d="M54.56,46.06c-3.65.05-7.29.05-10.94.05-1,0-2.11-.05-3.13,0-.22,0-.55.25-.55.38,0,2.11,0,4.22,0,6.42h8.91a4.48,4.48,0,0,1-.3,1.07C47.19,58,43,60,38.47,59.31a9.8,9.8,0,0,1-8-11.68,10.41,10.41,0,0,1,.66-2.28,9.84,9.84,0,0,1,11-5.51A9,9,0,0,1,46.25,42l4.91-4.91a2.41,2.41,0,0,1-.41-.36A16,16,0,0,0,37.21,33,16.83,16.83,0,0,0,24.32,55.55,16.88,16.88,0,0,0,42,66.16a14.94,14.94,0,0,0,9.68-4.52c3.86-4.11,4.88-9,4.25-14.5-.11-.9-.47-1.07-1.32-1.07Zm16.59.52h-1.1v-1c0-1.4,0-2.8,0-4.22,0-.22-.27-.63-.38-.63-1.26-.06-2.55-.06-3.89-.06v5.84h-5.9V47.6c.06,1,.08,2.11.17,3.15,1,.06,2,.11,3.1.11.85,0,1.73,0,2.66,0v5.76c1.46,0,2.8,0,4.25,0V50.86h5.76V46.58Z"/></g></g></svg>