<svg xmlns="http://www.w3.org/2000/svg" viewBox="0 0 99.04 99.04"><defs><style>.cls-1,.cls-2{fill:#262626;}.cls-2{fill-rule:evenodd;}</style></defs><title>Ресурс 15</title><g id="Слой_2" data-name="Слой 2"><g id="_16" data-name="16"><path class="cls-1" d="M49.52,0a49.52,49.52,0,1,1-35,14.5A49.34,49.34,0,0,1,49.52,0ZM81.79,17.25A45.64,45.64,0,1,0,95.17,49.52,45.51,45.51,0,0,0,81.79,17.25Z"/><path class="cls-2" d="M76.91,35.73c-.74-.55-3.4-.55-6-.55a38.22,38.22,0,0,0-6,.3C64.3,35.7,63,38.83,61.34,42c-1.92,3.62-4.25,7.13-5.73,7.07-1.95,0-1.48-5.95-1.34-10.36,0-2.88-.44-3.81-.85-4.06a16.34,16.34,0,0,0-3.81-1.4s-8.39-.63-9.57,3c1.62.22,4.36-.28,3.29,10.94-.08.55-1.29,5.16-5.18-1.07-1-1.56-4.71-10.91-6-11-4.31-.08-8.58-.27-10.06.55S23.91,43,29.42,51.58c4.47,7.07,9.21,12.56,17.44,13.93,1.56.17,5.57.33,6.86-.27.85-.41-.22-6.5,2.71-7.1,1.29-.25,6.3,6.36,8.2,7.1a18.45,18.45,0,0,0,6.25.55c2.8-.08,6,.28,6.28-1.64.69-4.2-8.47-9.68-8.72-12.26C68.22,50,71.78,46.59,73.59,44c2.25-3.18,4.72-7,3.32-8.23Z"/></g></g></svg>